<svg xmlns="http://www.w3.org/2000/svg" width="850" height="388" viewBox="0 0 850 388" fill="none"><path d="M850 375.5C850 382.404 659.721 388 425 388C190.279 388 0 382.404 0 375.5C0 368.596 190.279 363 425 363C659.721 363 850 368.596 850 375.5Z" fill="#F0F0F0"/><path d="M416.485 15.9941C416.485 7.70987 423.201 0.994141 431.485 0.994141H607.919C616.203 0.994141 622.919 7.70987 622.919 15.9941V361.994C622.919 370.278 616.203 376.994 607.919 376.994H431.485C423.201 376.994 416.485 370.278 416.485 361.994V15.9941Z" fill="#040505"/><path d="M405.677 18.5097C405.677 8.8361 412.936 0.994141 421.889 0.994141H595.899C604.853 0.994141 612.111 8.83611 612.111 18.5097V359.479C612.111 369.152 604.853 376.994 595.899 376.994H421.889C412.936 376.994 405.677 369.152 405.677 359.479V18.5097Z" fill="#474747"/><path d="M413.243 25.5178C413.243 19.0688 418.082 13.8408 424.051 13.8408H459.858C460.556 13.8408 461.151 14.3872 461.264 15.1314V15.1314C461.816 18.7844 464.698 21.4945 468.123 21.5824L484.981 22.0147H508.894H532.807L549.665 21.5824C553.09 21.4945 555.972 18.7844 556.524 15.1314V15.1314C556.637 14.3872 557.232 13.8408 557.93 13.8408H593.737C599.706 13.8408 604.545 19.0688 604.545 25.5178V352.474C604.545 358.923 599.706 364.151 593.737 364.151H424.051C418.082 364.151 413.243 358.923 413.243 352.474V25.5178Z" fill="#F0F0F0"/><path d="M415.404 25.5178C415.404 19.0688 420.243 13.8408 426.212 13.8408H459.858C460.556 13.8408 461.151 14.3872 461.264 15.1314C461.816 18.7844 464.698 21.4945 468.123 21.5824L484.981 22.0147H508.894H532.807L549.665 21.5824C553.09 21.4945 555.972 18.7844 556.524 15.1314C556.637 14.3872 557.232 13.8408 557.93 13.8408H593.737C599.706 13.8408 604.545 19.0688 604.545 25.5178V352.474C604.545 358.923 599.706 364.151 593.737 364.151H426.212C420.243 364.151 415.404 358.923 415.404 352.474V25.5178Z" fill="white"/><path d="M426.212 364.151H593.737C599.706 364.151 604.545 358.923 604.545 352.474V188.996L415.404 188.996V329.586V352.474C415.404 358.923 420.243 364.151 426.212 364.151Z" fill="#E1E2FF"/><path d="M593.737 13.8408H557.93C557.232 13.8408 556.637 14.3872 556.524 15.1314C555.972 18.7844 553.09 21.4945 549.665 21.5824L532.807 22.0147H508.894H484.981L468.123 21.5824C464.698 21.4945 461.816 18.7844 461.264 15.1314C461.151 14.3872 460.556 13.8408 459.858 13.8408H426.212C420.243 13.8408 415.404 19.0688 415.404 25.5178V33.1383H604.545V25.5178C604.545 19.0688 599.706 13.8408 593.737 13.8408Z" fill="#E1E2FF"/><path d="M616.435 58.794C616.435 56.5368 618.128 54.707 620.217 54.707V54.707C622.307 54.707 624 56.5368 624 58.794V109.005C624 111.262 622.307 113.092 620.217 113.092V113.092C618.128 113.092 616.435 111.262 616.435 109.005V58.794Z" fill="#474747"/><path d="M616.435 134.697C616.435 132.44 618.128 130.61 620.217 130.61V130.61C622.307 130.61 624 132.44 624 134.697V163.89C624 166.147 622.307 167.977 620.217 167.977V167.977C618.128 167.977 616.435 166.147 616.435 163.89V134.697Z" fill="#474747"/><path d="M421.192 78.5707C421.192 72.45 426.154 67.4883 432.275 67.4883H586.15C592.271 67.4883 597.233 72.45 597.233 78.5706V151.197C597.233 157.317 592.271 162.279 586.15 162.279H432.275C426.154 162.279 421.192 157.317 421.192 151.197V78.5707Z" fill="#4044FF"/><path d="M426.609 146.896C426.609 145.672 427.601 144.68 428.825 144.68H512.413C513.637 144.68 514.629 145.672 514.629 146.896V156.005C514.629 157.229 513.637 158.221 512.413 158.221H428.825C427.601 158.221 426.609 157.229 426.609 156.005V146.896Z" fill="white"/><path d="M426.609 76.4792C426.609 75.255 427.601 74.2627 428.825 74.2627H449.444C450.668 74.2627 451.661 75.255 451.661 76.4792V85.5878C451.661 86.8119 450.668 87.8042 449.444 87.8042H428.825C427.601 87.8042 426.609 86.8119 426.609 85.5878V76.4792Z" fill="white"/><path d="M458.432 76.4772C458.432 75.2531 459.424 74.2607 460.648 74.2607H502.256C503.481 74.2607 504.473 75.2531 504.473 76.4772V85.5858C504.473 86.8099 503.481 87.8023 502.256 87.8023H460.648C459.424 87.8023 458.432 86.8099 458.432 85.5858V76.4772Z" fill="white"/><path d="M453.692 75.369C453.692 74.7569 454.188 74.2607 454.8 74.2607H455.292C455.904 74.2607 456.4 74.7569 456.4 75.369V86.6941C456.4 87.3061 455.904 87.8023 455.292 87.8023H454.8C454.188 87.8023 453.692 87.3061 453.692 86.6941V75.369Z" fill="white"/><path d="M523.767 135.198C523.767 134.206 523.965 133.439 524.369 132.897C524.772 132.355 525.248 132.084 525.804 132.084C526.352 132.084 526.828 132.355 527.232 132.897C527.628 133.439 527.833 134.206 527.833 135.198C527.833 136.19 527.628 136.957 527.232 137.499C526.828 138.041 526.352 138.312 525.804 138.312C525.248 138.312 524.772 138.041 524.369 137.499C523.965 136.957 523.767 136.19 523.767 135.198ZM529.863 135.198C529.863 133.717 529.467 132.527 528.68 131.621C527.886 130.715 526.928 130.259 525.804 130.259C524.673 130.259 523.714 130.715 522.921 131.621C522.127 132.527 521.73 133.717 521.73 135.198C521.73 136.679 522.127 137.876 522.921 138.782C523.714 139.694 524.673 140.144 525.804 140.144C526.928 140.144 527.886 139.694 528.68 138.782C529.467 137.876 529.863 136.679 529.863 135.198Z" fill="white"/><path d="M532.574 135.198C532.574 134.206 532.773 133.439 533.176 132.897C533.579 132.355 534.055 132.084 534.611 132.084C535.16 132.084 535.636 132.355 536.039 132.897C536.436 133.439 536.641 134.206 536.641 135.198C536.641 136.19 536.436 136.957 536.039 137.499C535.636 138.041 535.16 138.312 534.611 138.312C534.055 138.312 533.579 138.041 533.176 137.499C532.773 136.957 532.574 136.19 532.574 135.198ZM538.671 135.198C538.671 133.717 538.274 132.527 537.487 131.621C536.694 130.715 535.735 130.259 534.611 130.259C533.48 130.259 532.521 130.715 531.728 131.621C530.934 132.527 530.538 133.717 530.538 135.198C530.538 136.679 530.934 137.876 531.728 138.782C532.521 139.694 533.48 140.144 534.611 140.144C535.735 140.144 536.694 139.694 537.487 138.782C538.274 137.876 538.671 136.679 538.671 135.198Z" fill="white"/><path d="M545.177 130.325H543.484L539.418 142.782H541.11L545.177 130.325Z" fill="white"/><path d="M547.954 135.198C547.954 134.206 548.152 133.439 548.556 132.897C548.959 132.355 549.435 132.084 549.991 132.084C550.539 132.084 551.015 132.355 551.419 132.897C551.815 133.439 552.02 134.206 552.02 135.198C552.02 136.19 551.815 136.957 551.419 137.499C551.015 138.041 550.539 138.312 549.991 138.312C549.435 138.312 548.959 138.041 548.556 137.499C548.152 136.957 547.954 136.19 547.954 135.198ZM554.05 135.198C554.05 133.717 553.654 132.527 552.867 131.621C552.073 130.715 551.115 130.259 549.991 130.259C548.86 130.259 547.901 130.715 547.108 131.621C546.314 132.527 545.917 133.717 545.917 135.198C545.917 136.679 546.314 137.876 547.108 138.782C547.901 139.694 548.86 140.144 549.991 140.144C551.115 140.144 552.073 139.694 552.867 138.782C553.654 137.876 554.05 136.679 554.05 135.198Z" fill="white"/><path d="M556.761 135.198C556.761 134.206 556.96 133.439 557.363 132.897C557.766 132.355 558.242 132.084 558.798 132.084C559.347 132.084 559.823 132.355 560.226 132.897C560.623 133.439 560.828 134.206 560.828 135.198C560.828 136.19 560.623 136.957 560.226 137.499C559.823 138.041 559.347 138.312 558.798 138.312C558.242 138.312 557.766 138.041 557.363 137.499C556.96 136.957 556.761 136.19 556.761 135.198ZM562.858 135.198C562.858 133.717 562.461 132.527 561.674 131.621C560.881 130.715 559.922 130.259 558.798 130.259C557.667 130.259 556.708 130.715 555.915 131.621C555.121 132.527 554.725 133.717 554.725 135.198C554.725 136.679 555.121 137.876 555.915 138.782C556.708 139.694 557.667 140.144 558.798 140.144C559.922 140.144 560.881 139.694 561.674 138.782C562.461 137.876 562.858 136.679 562.858 135.198Z" fill="white"/><path d="M430.676 117.987L432.215 120.244L433.985 118.821L432.331 116.807L434.818 116.09L434.113 113.961L431.625 114.91L431.856 112.179H429.484L429.727 114.91L427.239 113.961L426.522 116.09L429.01 116.807L427.355 118.821L429.125 120.244L430.676 117.987Z" fill="white"/><path d="M440.164 117.987L441.703 120.244L443.474 118.821L441.819 116.807L444.307 116.09L443.601 113.961L441.113 114.91L441.345 112.179H438.973L439.216 114.91L436.728 113.961L436.01 116.09L438.498 116.807L436.843 118.821L438.614 120.244L440.164 117.987Z" fill="white"/><path d="M449.653 117.987L451.192 120.244L452.962 118.821L451.307 116.807L453.795 116.09L453.089 113.961L450.602 114.91L450.833 112.179H448.461L448.704 114.91L446.216 113.961L445.499 116.09L447.986 116.807L446.332 118.821L448.102 120.244L449.653 117.987Z" fill="white"/><path d="M459.141 117.987L460.68 120.244L462.45 118.821L460.796 116.807L463.284 116.09L462.578 113.961L460.09 114.91L460.321 112.179H457.949L458.192 114.91L455.704 113.961L454.987 116.09L457.475 116.807L455.82 118.821L457.591 120.244L459.141 117.987Z" fill="white"/><path d="M473.489 117.987L475.028 120.244L476.799 118.821L475.144 116.807L477.632 116.09L476.926 113.961L474.438 114.91L474.67 112.179H472.297L472.54 114.91L470.053 113.961L469.335 116.09L471.823 116.807L470.168 118.821L471.939 120.244L473.489 117.987Z" fill="white"/><path d="M482.978 117.987L484.517 120.244L486.287 118.821L484.632 116.807L487.12 116.09L486.414 113.961L483.926 114.91L484.158 112.179H481.786L482.029 114.91L479.541 113.961L478.824 116.09L481.311 116.807L479.657 118.821L481.427 120.244L482.978 117.987Z" fill="white"/><path d="M492.466 117.987L494.005 120.244L495.775 118.821L494.121 116.807L496.608 116.09L495.903 113.961L493.415 114.91L493.646 112.179H491.274L491.517 114.91L489.029 113.961L488.312 116.09L490.8 116.807L489.145 118.821L490.915 120.244L492.466 117.987Z" fill="white"/><path d="M501.954 117.987L503.493 120.244L505.264 118.821L503.609 116.807L506.097 116.09L505.391 113.961L502.903 114.91L503.135 112.179H500.762L501.005 114.91L498.518 113.961L497.8 116.09L500.288 116.807L498.633 118.821L500.404 120.244L501.954 117.987Z" fill="white"/><path d="M516.303 117.987L517.841 120.244L519.612 118.821L517.957 116.807L520.445 116.09L519.739 113.961L517.251 114.91L517.483 112.179H515.111L515.354 114.91L512.866 113.961L512.148 116.09L514.636 116.807L512.982 118.821L514.752 120.244L516.303 117.987Z" fill="white"/><path d="M525.791 117.987L527.33 120.244L529.1 118.821L527.446 116.807L529.933 116.09L529.227 113.961L526.74 114.91L526.971 112.179H524.599L524.842 114.91L522.354 113.961L521.637 116.09L524.125 116.807L522.47 118.821L524.24 120.244L525.791 117.987Z" fill="white"/><path d="M535.279 117.987L536.818 120.244L538.589 118.821L536.934 116.807L539.422 116.09L538.716 113.961L536.228 114.91L536.459 112.179H534.087L534.33 114.91L531.843 113.961L531.125 116.09L533.613 116.807L531.958 118.821L533.729 120.244L535.279 117.987Z" fill="white"/><path d="M544.768 117.987L546.307 120.244L548.077 118.821L546.422 116.807L548.91 116.09L548.204 113.961L545.716 114.91L545.948 112.179H543.576L543.819 114.91L541.331 113.961L540.614 116.09L543.101 116.807L541.447 118.821L543.217 120.244L544.768 117.987Z" fill="white"/><path d="M559.116 117.987L560.655 120.244L562.425 118.821L560.77 116.807L563.258 116.09L562.552 113.961L560.065 114.91L560.296 112.179H557.924L558.167 114.91L555.679 113.961L554.962 116.09L557.45 116.807L555.795 118.821L557.565 120.244L559.116 117.987Z" fill="white"/><path d="M568.604 117.987L570.143 120.244L571.913 118.821L570.259 116.807L572.747 116.09L572.041 113.961L569.553 114.91L569.784 112.179H567.412L567.655 114.91L565.167 113.961L564.45 116.09L566.938 116.807L565.283 118.821L567.054 120.244L568.604 117.987Z" fill="white"/><path d="M578.092 117.987L579.631 120.244L581.402 118.821L579.747 116.807L582.235 116.09L581.529 113.961L579.041 114.91L579.273 112.179H576.901L577.144 114.91L574.656 113.961L573.938 116.09L576.426 116.807L574.772 118.821L576.542 120.244L578.092 117.987Z" fill="white"/><path d="M587.581 117.987L589.12 120.244L590.89 118.821L589.235 116.807L591.723 116.09L591.017 113.961L588.53 114.91L588.761 112.179H586.389L586.632 114.91L584.144 113.961L583.427 116.09L585.915 116.807L584.26 118.821L586.03 120.244L587.581 117.987Z" fill="white"/><path d="M420.084 199.151C420.084 198.047 420.98 197.151 422.084 197.151H566.588C567.693 197.151 568.588 198.047 568.588 199.151V211.775C568.588 212.879 567.693 213.775 566.588 213.775H422.084C420.98 213.775 420.084 212.879 420.084 211.775V199.151Z" fill="#A4A6FF"/><path d="M420.084 217.991C420.084 216.887 420.98 215.991 422.084 215.991H528.908C530.013 215.991 530.908 216.887 530.908 217.991V222.857C530.908 223.962 530.013 224.857 528.908 224.857H422.084C420.98 224.857 420.084 223.962 420.084 222.857V217.991Z" fill="#A4A6FF" fill-opacity="0.5"/><path d="M420.084 229.074C420.084 227.97 420.98 227.074 422.084 227.074H528.908C530.013 227.074 530.908 227.97 530.908 229.074V233.94C530.908 235.045 530.013 235.94 528.908 235.94H422.084C420.98 235.94 420.084 235.045 420.084 233.94V229.074Z" fill="#A4A6FF" fill-opacity="0.5"/><path d="M420.084 240.156C420.084 239.052 420.98 238.156 422.084 238.156H496.769C497.874 238.156 498.769 239.052 498.769 240.156V245.022C498.769 246.127 497.874 247.022 496.769 247.022H422.084C420.98 247.022 420.084 246.127 420.084 245.022V240.156Z" fill="#A4A6FF" fill-opacity="0.5"/><path d="M420.084 262.32C420.084 261.216 420.98 260.32 422.084 260.32H516.718C517.822 260.32 518.718 261.216 518.718 262.32V274.944C518.718 276.048 517.822 276.944 516.718 276.944H422.084C420.98 276.944 420.084 276.048 420.084 274.944V262.32Z" fill="#A4A6FF"/><path d="M420.084 281.16C420.084 280.056 420.98 279.16 422.084 279.16H528.908C530.013 279.16 530.908 280.056 530.908 281.16V286.026C530.908 287.131 530.013 288.026 528.908 288.026H422.084C420.98 288.026 420.084 287.131 420.084 286.026V281.16Z" fill="#A4A6FF" fill-opacity="0.5"/><path d="M420.084 292.243C420.084 291.139 420.98 290.243 422.084 290.243H512.285C513.389 290.243 514.285 291.139 514.285 292.243V297.109C514.285 298.214 513.389 299.109 512.285 299.109H422.084C420.98 299.109 420.084 298.214 420.084 297.109V292.243Z" fill="#A4A6FF" fill-opacity="0.5"/><path d="M420.084 316.625C420.084 315.52 420.98 314.625 422.084 314.625H546.64C547.745 314.625 548.64 315.52 548.64 316.625V329.249C548.64 330.353 547.745 331.249 546.64 331.249H422.084C420.98 331.249 420.084 330.353 420.084 329.249V316.625Z" fill="#A4A6FF"/><path d="M420.084 335.465C420.084 334.36 420.98 333.465 422.084 333.465H528.908C530.013 333.465 530.908 334.36 530.908 335.465V340.331C530.908 341.435 530.013 342.331 528.908 342.331H422.084C420.98 342.331 420.084 341.435 420.084 340.331V335.465Z" fill="#A4A6FF" fill-opacity="0.5"/><path d="M420.084 346.548C420.084 345.443 420.98 344.548 422.084 344.548H528.908C530.013 344.548 530.908 345.443 530.908 346.548V351.414C530.908 352.518 530.013 353.414 528.908 353.414H422.084C420.98 353.414 420.084 352.518 420.084 351.414V346.548Z" fill="#A4A6FF" fill-opacity="0.5"/><path d="M420.084 357.63C420.084 356.525 420.98 355.63 422.084 355.63H496.769C497.874 355.63 498.769 356.525 498.769 357.63V362.496C498.769 363.6 497.874 364.496 496.769 364.496H422.084C420.98 364.496 420.084 363.6 420.084 362.496V357.63Z" fill="#A4A6FF" fill-opacity="0.5"/><path d="M331.567 258.563H298.864V229.13C298.864 194.873 326.744 166.994 361 166.994C395.257 166.994 423.136 194.873 423.136 229.13V258.563H390.433V229.13C390.433 221.324 387.332 213.838 381.812 208.318C376.292 202.798 368.806 199.697 361 199.697C353.194 199.697 345.708 202.798 340.188 208.318C334.668 213.838 331.567 221.324 331.567 229.13V258.563Z" fill="#C4C4C4"/><path fill-rule="evenodd" clip-rule="evenodd" d="M355.775 178.967C332.005 178.967 312.041 199.956 312.041 226.514V251.321C312.041 253.985 309.882 256.145 307.218 256.145C304.554 256.145 302.394 253.985 302.394 251.321V226.514C302.394 195.328 326.004 169.32 355.775 169.32C361.742 169.32 367.489 170.376 372.855 172.322C375.359 173.23 376.653 175.997 375.745 178.501C374.837 181.006 372.071 182.3 369.566 181.391C365.23 179.819 360.595 178.967 355.775 178.967ZM388.161 187.214C390.178 185.473 393.224 185.697 394.964 187.714C403.79 197.942 409.156 211.595 409.156 226.514C409.156 229.178 406.996 231.338 404.333 231.338C401.669 231.338 399.509 229.178 399.509 226.514C399.509 213.921 394.983 202.502 387.661 194.017C385.92 192 386.144 188.954 388.161 187.214Z" fill="url(#paint0_linear_1778_3168)"/><path d="M439.378 258.562H295.485C290.281 258.562 285.29 260.63 281.61 264.31C277.93 267.989 275.863 272.98 275.863 278.184V368.047C275.863 373.251 277.93 378.242 281.61 381.921C285.29 385.601 290.281 387.668 295.485 387.668H439.378C444.582 387.668 449.573 385.601 453.253 381.921C456.933 378.242 459 373.251 459 368.047V278.184C459 272.98 456.933 267.989 453.253 264.31C449.573 260.63 444.582 258.562 439.378 258.562ZM383.783 338.205C383.783 342.542 382.06 346.701 378.994 349.767C375.927 352.834 371.768 354.557 367.431 354.557C363.095 354.557 358.936 352.834 355.869 349.767C352.803 346.701 351.08 342.542 351.08 338.205V307.208C351.08 302.872 352.803 298.713 355.869 295.646C358.936 292.58 363.095 290.857 367.431 290.857C371.768 290.857 375.927 292.58 378.994 295.646C382.06 298.713 383.783 302.872 383.783 307.208V338.205Z" fill="#040505"/><path d="M426.515 258.562H282.622C277.418 258.562 272.427 260.63 268.747 264.31C265.067 267.989 263 272.98 263 278.184V368.047C263 373.251 265.067 378.242 268.747 381.921C272.427 385.601 277.418 387.668 282.622 387.668H426.515C431.719 387.668 436.71 385.601 440.39 381.921C444.07 378.242 446.137 373.251 446.137 368.047V278.184C446.137 272.98 444.07 267.989 440.39 264.31C436.71 260.63 431.719 258.562 426.515 258.562ZM370.92 338.205C370.92 342.542 369.197 346.701 366.131 349.767C363.064 352.834 358.905 354.557 354.569 354.557C350.232 354.557 346.073 352.834 343.006 349.767C339.94 346.701 338.217 342.542 338.217 338.205V307.208C338.217 302.872 339.94 298.713 343.006 295.646C346.073 292.58 350.232 290.857 354.569 290.857C358.905 290.857 363.064 292.58 366.131 295.646C369.197 298.713 370.92 302.872 370.92 307.208V338.205Z" fill="#4E4E4E"/><path d="M282.622 387.668C277.418 387.668 272.427 385.601 268.747 381.921L320.081 258.562H358.026L308.504 387.668H282.622Z" fill="url(#paint1_linear_1778_3168)" fill-opacity="0.9"/><path d="M360.92 387.668L406.905 258.562H416.874L371.532 387.668H360.92Z" fill="url(#paint2_linear_1778_3168)" fill-opacity="0.9"/><path d="M282.622 258.562H289.853L263 321.103V301.252L280.206 258.712C281.003 258.613 281.81 258.562 282.622 258.562Z" fill="url(#paint3_linear_1778_3168)" fill-opacity="0.9"/><path d="M370.92 338.207C370.92 342.543 369.197 346.703 366.131 349.769C363.064 352.836 358.905 354.558 354.568 354.558C350.232 354.558 346.073 352.836 343.006 349.769C339.94 346.703 338.217 342.543 338.217 338.207V307.21C338.217 302.873 339.94 298.714 343.006 295.648C346.073 292.581 350.232 290.858 354.568 290.858C358.905 290.858 363.064 292.581 366.131 295.648C369.197 298.714 370.92 302.873 370.92 307.21V338.207Z" fill="#040505"/><path d="M306.261 212.509C306.261 230.851 291.391 245.721 273.049 245.721C254.707 245.721 239.838 230.851 239.838 212.509C239.838 194.167 254.707 179.298 273.049 179.298C291.391 179.298 306.261 194.167 306.261 212.509Z" fill="white"/><path fill-rule="evenodd" clip-rule="evenodd" d="M314.564 212.508C314.564 235.436 295.977 254.022 273.049 254.022C250.122 254.022 231.535 235.436 231.535 212.508C231.535 189.581 250.122 170.994 273.049 170.994C295.977 170.994 314.564 189.581 314.564 212.508ZM273.049 245.72C291.391 245.72 306.261 230.85 306.261 212.508C306.261 194.166 291.391 179.297 273.049 179.297C254.707 179.297 239.838 194.166 239.838 212.508C239.838 230.85 254.707 245.72 273.049 245.72Z" fill="#040505"/><path fill-rule="evenodd" clip-rule="evenodd" d="M309.028 212.508C309.028 235.436 290.442 254.022 267.514 254.022C244.586 254.022 226 235.436 226 212.508C226 189.581 244.586 170.994 267.514 170.994C290.442 170.994 309.028 189.581 309.028 212.508ZM267.514 245.72C285.856 245.72 300.726 230.85 300.726 212.508C300.726 194.166 285.856 179.297 267.514 179.297C249.172 179.297 234.303 194.166 234.303 212.508C234.303 230.85 249.172 245.72 267.514 245.72Z" fill="#4E4E4E"/><path d="M300.725 212.509C300.725 230.851 285.856 245.721 267.514 245.721C249.172 245.721 234.303 230.851 234.303 212.509C234.303 194.167 249.172 179.298 267.514 179.298C285.856 179.298 300.725 194.167 300.725 212.509ZM263.673 230.094L288.313 205.454C289.15 204.617 289.15 203.26 288.313 202.424L285.283 199.393C284.446 198.557 283.09 198.557 282.253 199.393L262.157 219.489L252.775 210.107C251.939 209.27 250.582 209.27 249.745 210.107L246.715 213.137C245.878 213.973 245.878 215.33 246.715 216.167L260.642 230.094C261.479 230.931 262.836 230.931 263.673 230.094V230.094Z" fill="#00CA50"/><defs><linearGradient id="paint0_linear_1778_3168" x1="355.775" y1="174.144" x2="355.775" y2="251.321" gradientUnits="userSpaceOnUse"><stop stop-color="#F0F0F0"/><stop offset="1" stop-color="#F0F0F0" stop-opacity="0"/></linearGradient><linearGradient id="paint1_linear_1778_3168" x1="348.298" y1="258.562" x2="348.298" y2="387.668" gradientUnits="userSpaceOnUse"><stop stop-color="#C4C4C4"/><stop offset="1" stop-color="#C4C4C4" stop-opacity="0"/></linearGradient><linearGradient id="paint2_linear_1778_3168" x1="348.298" y1="258.562" x2="348.298" y2="387.668" gradientUnits="userSpaceOnUse"><stop stop-color="#C4C4C4"/><stop offset="1" stop-color="#C4C4C4" stop-opacity="0"/></linearGradient><linearGradient id="paint3_linear_1778_3168" x1="348.298" y1="258.562" x2="348.298" y2="387.668" gradientUnits="userSpaceOnUse"><stop stop-color="#C4C4C4"/><stop offset="1" stop-color="#C4C4C4" stop-opacity="0"/></linearGradient></defs></svg>